HIERARCHY
ROOT Hips
{
	OFFSET 0.053599 88.859886 3.107447
	CHANNELS 6 Xposition Yposition Zposition Zrotation Yrotation Xrotation 
	JOINT Spine
	{
		OFFSET -0.000000 8.814246 -2.080107
		CHANNELS 3 Zrotation Yrotation Xrotation
		JOINT Spine1
		{
			OFFSET 0.000000 8.844141 0.000000
			CHANNELS 3 Zrotation Yrotation Xrotation
			JOINT Spine2
			{
				OFFSET -0.000000 11.682268 0.000000
				CHANNELS 3 Zrotation Yrotation Xrotation
				JOINT Spine3
				{
					OFFSET 0.000000 11.746700 0.000000
					CHANNELS 3 Zrotation Yrotation Xrotation
					JOINT Neck
					{
						OFFSET -0.000000 17.658264 -0.000000
						CHANNELS 3 Zrotation Yrotation Xrotation
						JOINT Neck1
						{
							OFFSET -0.000000 5.101515 -0.000000
							CHANNELS 3 Zrotation Yrotation Xrotation
							JOINT Head
							{
								OFFSET 0.000000 5.101515 0.000000
								CHANNELS 3 Zrotation Yrotation Xrotation
								JOINT HeadEnd
								{
									OFFSET 0.000000 11.655085 0.000000
									CHANNELS 3 Zrotation Yrotation Xrotation
									End Site
									{
										OFFSET 0.000000 0.000000 0.000000
									}
								}
							}
						}
					}
					JOINT RightShoulder
					{
						OFFSET -2.625389 11.175210 0.000000
						CHANNELS 3 Zrotation Yrotation Xrotation
						JOINT RightArm
						{
							OFFSET -0.000000 10.434715 -0.000000
							CHANNELS 3 Zrotation Yrotation Xrotation
							JOINT RightForeArm
							{
								OFFSET -0.000000 29.628420 0.000000
								CHANNELS 3 Zrotation Yrotation Xrotation
								JOINT RightHand
								{
									OFFSET -0.000000 22.857611 0.000000
									CHANNELS 3 Zrotation Yrotation Xrotation
									JOINT RightHandThumb1
									{
										OFFSET -2.867323 3.959563 2.944291
										CHANNELS 3 Zrotation Yrotation Xrotation
										JOINT RightHandThumb2
										{
											OFFSET 0.000000 3.350399 0.000000
											CHANNELS 3 Zrotation Yrotation Xrotation
											JOINT RightHandThumb3
											{
												OFFSET 0.000000 3.756509 -0.000000
												CHANNELS 3 Zrotation Yrotation Xrotation
												JOINT RightHandThumb4
												{
													OFFSET 0.000000 3.147345 0.000000
													CHANNELS 3 Zrotation Yrotation Xrotation
													End Site
													{
														OFFSET 0.000000 0.000000 0.000000
													}
												}
											}
										}
									}
									JOINT RightHandIndex1
									{
										OFFSET -0.086752 10.030893 2.345280
										CHANNELS 3 Zrotation Yrotation Xrotation
										JOINT RightHandIndex2
										{
											OFFSET -0.000000 4.061090 0.000000
											CHANNELS 3 Zrotation Yrotation Xrotation
											JOINT RightHandIndex3
											{
												OFFSET -0.000000 3.248873 0.000000
												CHANNELS 3 Zrotation Yrotation Xrotation
												JOINT RightHandIndex4
												{
													OFFSET 0.000000 2.639709 -0.000000
													CHANNELS 3 Zrotation Yrotation Xrotation
													End Site
													{
														OFFSET 0.000000 0.000000 0.000000
													}
												}
											}
										}
									}
									JOINT RightHandMiddle1
									{
										OFFSET 0.104102 9.502952 0.006768
										CHANNELS 3 Zrotation Yrotation Xrotation
										JOINT RightHandMiddle2
										{
											OFFSET 0.000000 4.568727 0.000000
											CHANNELS 3 Zrotation Yrotation Xrotation
											JOINT RightHandMiddle3
											{
												OFFSET 0.000000 3.654981 -0.000000
												CHANNELS 3 Zrotation Yrotation Xrotation
												JOINT RightHandMiddle4
												{
													OFFSET -0.000000 2.741236 -0.000000
													CHANNELS 3 Zrotation Yrotation Xrotation
													End Site
													{
														OFFSET 0.000000 0.000000 0.000000
													}
												}
											}
										}
									}
									JOINT RightHandRing1
									{
										OFFSET 0.086752 8.921708 -2.267442
										CHANNELS 3 Zrotation Yrotation Xrotation
										JOINT RightHandRing2
										{
											OFFSET -0.000000 4.061090 0.000000
											CHANNELS 3 Zrotation Yrotation Xrotation
											JOINT RightHandRing3
											{
												OFFSET 0.000000 3.654981 -0.000000
												CHANNELS 3 Zrotation Yrotation Xrotation
												JOINT RightHandRing4
												{
													OFFSET 0.000000 2.741236 -0.000000
													CHANNELS 3 Zrotation Yrotation Xrotation
													End Site
													{
														OFFSET 0.000000 0.000000 0.000000
													}
												}
											}
										}
									}
									JOINT RightHandPinky1
									{
										OFFSET -0.173504 7.976997 -4.467199
										CHANNELS 3 Zrotation Yrotation Xrotation
										JOINT RightHandPinky2
										{
											OFFSET 0.000000 3.350399 -0.000000
											CHANNELS 3 Zrotation Yrotation Xrotation
											JOINT RightHandPinky3
											{
												OFFSET -0.000000 2.842763 0.000000
												CHANNELS 3 Zrotation Yrotation Xrotation
												JOINT RightHandPinky4
												{
													OFFSET -0.000000 2.639709 0.000000
													CHANNELS 3 Zrotation Yrotation Xrotation
													End Site
													{
														OFFSET 0.000000 0.000000 0.000000
													}
												}
											}
										}
									}
									JOINT RightForeArmEnd
									{
										OFFSET 0.000000 0.000000 0.000000
										CHANNELS 3 Zrotation Yrotation Xrotation
										End Site
										{
											OFFSET 0.000000 0.000000 0.000000
										}
									}
								}
								JOINT RightArmEnd
								{
									OFFSET 0.000000 0.000000 0.000000
									CHANNELS 3 Zrotation Yrotation Xrotation
									End Site
									{
										OFFSET 0.000000 0.000000 0.000000
									}
								}
							}
						}
					}
					JOINT LeftShoulder
					{
						OFFSET 2.625389 11.175210 0.000000
						CHANNELS 3 Zrotation Yrotation Xrotation
						JOINT LeftArm
						{
							OFFSET 0.000000 10.813635 -0.000000
							CHANNELS 3 Zrotation Yrotation Xrotation
							JOINT LeftForeArm
							{
								OFFSET 0.000000 28.724781 0.000000
								CHANNELS 3 Zrotation Yrotation Xrotation
								JOINT LeftHand
								{
									OFFSET 0.644384 25.716167 -0.328871
									CHANNELS 3 Zrotation Yrotation Xrotation
									JOINT LeftHandThumb1
									{
										OFFSET 2.867323 3.959563 2.944291
										CHANNELS 3 Zrotation Yrotation Xrotation
										JOINT LeftHandThumb2
										{
											OFFSET 0.000000 3.350399 0.000000
											CHANNELS 3 Zrotation Yrotation Xrotation
											JOINT LeftHandThumb3
											{
												OFFSET -0.000000 3.756509 0.000000
												CHANNELS 3 Zrotation Yrotation Xrotation
												JOINT LeftHandThumb4
												{
													OFFSET -0.000000 3.100000 0.000000
													CHANNELS 3 Zrotation Yrotation Xrotation
													End Site
													{
														OFFSET 0.000000 0.000000 0.000000
													}
												}
											}
										}
									}
									JOINT LeftHandIndex1
									{
										OFFSET 0.086752 10.030893 2.345280
										CHANNELS 3 Zrotation Yrotation Xrotation
										JOINT LeftHandIndex2
										{
											OFFSET -0.000000 4.061090 -0.000000
											CHANNELS 3 Zrotation Yrotation Xrotation
											JOINT LeftHandIndex3
											{
												OFFSET 0.000000 3.248873 -0.000000
												CHANNELS 3 Zrotation Yrotation Xrotation
												JOINT LeftHandIndex4
												{
													OFFSET 0.000000 2.639709 -0.000000
													CHANNELS 3 Zrotation Yrotation Xrotation
													End Site
													{
														OFFSET 0.000000 0.000000 0.000000
													}
												}
											}
										}
									}
									JOINT LeftHandMiddle1
									{
										OFFSET -0.104102 9.502952 0.006768
										CHANNELS 3 Zrotation Yrotation Xrotation
										JOINT LeftHandMiddle2
										{
											OFFSET -0.000000 4.568727 -0.000000
											CHANNELS 3 Zrotation Yrotation Xrotation
											JOINT LeftHandMiddle3
											{
												OFFSET 0.000000 3.654981 0.000000
												CHANNELS 3 Zrotation Yrotation Xrotation
												JOINT LeftHandMiddle4
												{
													OFFSET 0.000000 2.741236 -0.000000
													CHANNELS 3 Zrotation Yrotation Xrotation
													End Site
													{
														OFFSET 0.000000 0.000000 0.000000
													}
												}
											}
										}
									}
									JOINT LeftHandRing1
									{
										OFFSET -0.086752 8.921708 -2.267442
										CHANNELS 3 Zrotation Yrotation Xrotation
										JOINT LeftHandRing2
										{
											OFFSET 0.000000 4.061090 0.000000
											CHANNELS 3 Zrotation Yrotation Xrotation
											JOINT LeftHandRing3
											{
												OFFSET 0.000000 3.654981 0.000000
												CHANNELS 3 Zrotation Yrotation Xrotation
												JOINT LeftHandRing4
												{
													OFFSET 0.000000 2.741236 0.000000
													CHANNELS 3 Zrotation Yrotation Xrotation
													End Site
													{
														OFFSET 0.000000 0.000000 0.000000
													}
												}
											}
										}
									}
									JOINT LeftHandPinky1
									{
										OFFSET 0.173504 7.976997 -4.467199
										CHANNELS 3 Zrotation Yrotation Xrotation
										JOINT LeftHandPinky2
										{
											OFFSET -0.000000 3.350399 -0.000000
											CHANNELS 3 Zrotation Yrotation Xrotation
											JOINT LeftHandPinky3
											{
												OFFSET 0.000000 2.842763 0.000000
												CHANNELS 3 Zrotation Yrotation Xrotation
												JOINT LeftHandPinky4
												{
													OFFSET -0.000000 2.639709 -0.000000
													CHANNELS 3 Zrotation Yrotation Xrotation
													End Site
													{
														OFFSET 0.000000 0.000000 0.000000
													}
												}
											}
										}
									}
									JOINT LeftForeArmEnd
									{
										OFFSET 0.000000 0.000000 0.000000
										CHANNELS 3 Zrotation Yrotation Xrotation
										End Site
										{
											OFFSET 0.000000 0.000000 0.000000
										}
									}
								}
								JOINT LeftArmEnd
								{
									OFFSET 0.000000 0.000000 0.000000
									CHANNELS 3 Zrotation Yrotation Xrotation
									End Site
									{
										OFFSET 0.000000 0.000000 0.000000
									}
								}
							}
						}
					}
				}
			}
		}
	}
	JOINT RightUpLeg
	{
		OFFSET -11.289943 0.000000 0.000000
		CHANNELS 3 Zrotation Yrotation Xrotation
		JOINT RightLeg
		{
			OFFSET 0.000000 -38.200325 0.000000
			CHANNELS 3 Zrotation Yrotation Xrotation
			JOINT RightFoot
			{
				OFFSET -0.000000 -39.900856 -0.000000
				CHANNELS 3 Zrotation Yrotation Xrotation
				JOINT RightToeBase
				{
					OFFSET 0.000000 0.000000 15.261641
					CHANNELS 3 Zrotation Yrotation Xrotation
					JOINT RightToeBaseEnd
					{
						OFFSET 0.000000 0.000000 7.370709
						CHANNELS 3 Zrotation Yrotation Xrotation
						End Site
						{
							OFFSET 0.000000 0.000000 0.000000
						}
					}
				}
				JOINT RightLegEnd
				{
					OFFSET 0.000000 0.000000 0.000000
					CHANNELS 3 Zrotation Yrotation Xrotation
					End Site
					{
						OFFSET 0.000000 0.000000 0.000000
					}
				}
			}
			JOINT RightUpLegEnd
			{
				OFFSET 0.000000 0.000000 0.000000
				CHANNELS 3 Zrotation Yrotation Xrotation
				End Site
				{
					OFFSET 0.000000 0.000000 0.000000
				}
			}
		}
	}
	JOINT LeftUpLeg
	{
		OFFSET 11.315661 -0.000000 0.000000
		CHANNELS 3 Zrotation Yrotation Xrotation
		JOINT LeftLeg
		{
			OFFSET -0.000000 -38.200325 -0.000000
			CHANNELS 3 Zrotation Yrotation Xrotation
			JOINT LeftFoot
			{
				OFFSET 0.000000 -39.900856 -0.000000
				CHANNELS 3 Zrotation Yrotation Xrotation
				JOINT LeftToeBase
				{
					OFFSET -0.000000 -0.000000 15.261641
					CHANNELS 3 Zrotation Yrotation Xrotation
					JOINT LeftToeBaseEnd
					{
						OFFSET 0.000000 -0.000000 7.539996
						CHANNELS 3 Zrotation Yrotation Xrotation
						End Site
						{
							OFFSET 0.000000 0.000000 0.000000
						}
					}
				}
				JOINT LeftLegEnd
				{
					OFFSET 0.000000 0.000000 0.000000
					CHANNELS 3 Zrotation Yrotation Xrotation
					End Site
					{
						OFFSET 0.000000 0.000000 0.000000
					}
				}
			}
			JOINT LeftUpLegEnd
			{
				OFFSET 0.000000 0.000000 0.000000
				CHANNELS 3 Zrotation Yrotation Xrotation
				End Site
				{
					OFFSET 0.000000 0.000000 0.000000
				}
			}
		}
	}
}
MOTION
Frames: 4
Frame Time: 0.016667
0.346056 88.866051 2.958067 -0.072813 -1.142832 -9.399481 0.965220 0.120713 6.575163 -0.981585 0.229868 2.447278 0.558141 -0.746706 4.147610 -1.297910 0.264831 4.243105 0.187172 0.802434 3.202034 -0.035229 0.795783 -4.078702 -0.374856 -0.648956 -20.416285 0.000000 0.000000 0.000000 91.744797 -0.309003 9.061846 67.937477 -20.573076 -0.073239 -0.531508 18.792522 53.838413 1.006304 13.674981 -0.738972 18.037064 30.682529 63.793518 -6.530334 -8.751518 -15.161077 -4.772391 -5.740737 -10.446027 0.000000 0.000000 0.000000 -1.605126 -8.799370 8.718009 3.151614 0.475039 0.801128 2.850838 0.034081 0.775402 0.000000 0.000000 0.000000 -1.054234 -3.342736 5.133003 1.919928 0.491057 0.307339 2.600704 -0.004759 0.253608 0.000000 0.000000 0.000000 0.429689 4.438583 0.811492 2.299893 -0.999725 -0.513469 2.541434 -0.014504 -0.361748 0.000000 0.000000 0.000000 0.144118 12.859814 -4.167733 2.538369 -1.935504 -1.439232 2.524108 0.071801 -1.224941 0.000000 0.000000 0.000000 0.000000 0.000000 0.000000 0.000000 0.000000 0.000000 -88.381355 0.095779 4.315037 -74.507240 9.611518 -8.992710 -0.511384 -14.919662 65.557533 -7.665781 -21.662849 -5.825726 -17.441870 -30.897758 64.354370 5.829126 7.460960 -13.291296 4.244500 5.089390 -9.270625 0.000000 0.000000 0.000000 0.693586 -9.265221 12.212074 -2.098056 0.519976 -0.466776 -2.132320 0.043142 -0.514418 0.000000 0.000000 0.000000 0.833828 -3.754351 7.101416 -2.323905 0.506206 -0.251543 -2.401262 0.003347 -0.197480 0.000000 0.000000 0.000000 -2.976806 4.880771 1.138578 -4.011714 -1.007736 0.469377 -4.262647 -0.012400 0.350724 0.000000 0.000000 0.000000 -7.833750 14.173914 -5.498044 -6.065602 -1.943652 1.792107 -5.763186 0.113029 1.604947 0.000000 0.000000 0.000000 0.000000 0.000000 0.000000 0.000000 0.000000 0.000000 -1.053447 -8.919350 12.895021 -0.056285 -0.606645 5.667706 -2.139128 -7.457397 17.880640 -0.839405 0.800094 -18.739666 0.000000 0.000000 0.000000 0.000000 0.000000 0.000000 0.000000 0.000000 0.000000 -1.603654 -6.037386 8.262573 0.067974 0.335937 10.043666 3.862015 -0.741023 16.907026 0.341687 -0.450690 -20.771294 0.000000 0.000000 0.000000 0.000000 0.000000 0.000000 0.000000 0.000000 0.000000 
0.358257 88.873940 2.946889 -0.043330 -1.136951 -9.437321 0.952262 0.126493 6.540648 -0.998779 0.241238 2.483127 0.585058 -0.695132 4.197292 -1.350555 0.292906 4.286169 0.108714 0.748970 3.373450 -0.072051 0.666471 -4.052061 -0.328716 -0.645873 -20.523018 0.000000 0.000000 0.000000 91.615379 -0.303829 8.978840 68.110069 -19.660933 -0.478595 -0.580192 18.844597 56.597546 0.074147 13.155087 -0.655394 17.672621 30.807617 64.160667 -6.104107 -8.058827 -14.050065 -4.446751 -5.273137 -9.661682 0.000000 0.000000 0.000000 -4.500718 -8.293960 9.812176 2.190238 0.507234 0.655062 1.870511 0.065050 0.642905 0.000000 0.000000 0.000000 -3.842598 -2.854600 5.797738 0.966093 0.504796 0.246282 1.648432 0.006654 0.203150 0.000000 0.000000 0.000000 -2.359272 4.932039 0.856683 1.307043 -1.020311 -0.431691 1.541254 -0.030957 -0.300822 0.000000 0.000000 0.000000 -2.639328 13.329348 -4.665319 1.578502 -1.989638 -1.211216 1.564123 0.023552 -1.034636 0.000000 0.000000 0.000000 0.000000 0.000000 0.000000 0.000000 0.000000 0.000000 -88.289711 0.104507 4.120540 -74.514206 8.769848 -9.138393 -0.460893 -14.953156 67.728752 -7.820162 -21.358101 -4.904936 -17.121763 -31.015989 64.699188 5.433451 6.833371 -12.274090 3.939548 4.667600 -8.562659 0.000000 0.000000 0.000000 2.928174 -9.702099 13.506789 -1.551970 0.551752 -0.341641 -1.597436 0.073178 -0.404871 0.000000 0.000000 0.000000 3.026450 -4.156406 8.022032 -1.725380 0.520230 -0.199612 -1.837408 0.015285 -0.156000 0.000000 0.000000 0.000000 -0.691424 4.496836 1.510093 -3.263437 -1.028467 0.396976 -3.518075 -0.028590 0.295870 0.000000 0.000000 0.000000 -5.707945 13.862328 -5.595805 -5.305146 -2.001462 1.588902 -4.994102 0.065492 1.431647 0.000000 0.000000 0.000000 0.000000 0.000000 0.000000 0.000000 0.000000 0.000000 -1.077929 -8.868818 12.965764 -0.055594 -0.606338 5.570346 -2.156407 -7.410603 17.909784 -0.843159 0.800655 -18.749067 0.000000 0.000000 0.000000 0.000000 0.000000 0.000000 0.000000 0.000000 0.000000 -1.629292 -6.044065 8.347127 0.068685 0.338200 10.017819 3.853346 -0.821267 16.914421 0.331340 -0.449686 -20.785774 0.000000 0.000000 0.000000 0.000000 0.000000 0.000000 0.000000 0.000000 0.000000 
0.370358 88.880043 2.934433 -0.021507 -1.133729 -9.479812 0.943441 0.132266 6.505474 -1.010224 0.253470 2.530397 0.597436 -0.648892 4.231047 -1.399026 0.315341 4.333410 0.056737 0.700932 3.542540 -0.097806 0.562116 -4.020127 -0.289968 -0.650909 -20.619457 0.000000 0.000000 0.000000 91.487747 -0.299905 8.887965 68.303101 -18.762215 -0.869646 -0.629477 18.825651 59.220585 -1.053511 12.259874 -0.497415 17.312773 30.936535 64.534683 -5.660841 -7.372513 -12.933485 -4.112757 -4.809252 -8.870511 0.000000 0.000000 0.000000 -7.407959 -7.787399 10.820132 1.507721 0.536234 0.513272 1.171360 0.092668 0.514956 0.000000 0.000000 0.000000 -6.700558 -2.358171 6.397320 0.291691 0.517583 0.186278 0.972850 0.017126 0.153786 0.000000 0.000000 0.000000 -5.353608 5.454973 0.871322 0.567811 -1.039780 -0.352206 0.790755 -0.046438 -0.241246 0.000000 0.000000 0.000000 -5.705359 13.830131 -5.143950 0.805047 -2.038521 -0.995245 0.796347 -0.020668 -0.855239 0.000000 0.000000 0.000000 0.000000 0.000000 0.000000 0.000000 0.000000 0.000000 -88.228325 0.121066 3.930593 -74.486046 7.998555 -9.250854 -0.411274 -14.909516 69.887634 -7.534847 -20.819817 -4.058426 -16.798241 -31.137926 65.052818 5.025424 6.196069 -11.234580 3.626093 4.238108 -7.838404 0.000000 0.000000 0.000000 5.217630 -10.141788 14.792142 -1.130718 0.581032 -0.226657 -1.182955 0.100908 -0.303363 0.000000 0.000000 0.000000 5.297680 -4.571296 8.941635 -1.247231 0.533374 -0.151011 -1.393339 0.026610 -0.117143 0.000000 0.000000 0.000000 1.745542 4.085242 1.896382 -2.614426 -1.047719 0.327783 -2.870268 -0.043761 0.243271 0.000000 0.000000 0.000000 -3.372368 13.515465 -5.646271 -4.603662 -2.054394 1.388187 -4.282074 0.021753 1.258752 0.000000 0.000000 0.000000 0.000000 0.000000 0.000000 0.000000 0.000000 0.000000 -1.096879 -8.823404 13.043567 -0.055150 -0.605880 5.484333 -2.173903 -7.356857 17.931332 -0.844499 0.801070 -18.759045 0.000000 0.000000 0.000000 0.000000 0.000000 0.000000 0.000000 0.000000 0.000000 -1.654266 -6.066815 8.438804 0.069579 0.340988 9.994349 3.840642 -0.898617 16.914892 0.321235 -0.450189 -20.804234 0.000000 0.000000 0.000000 0.000000 0.000000 0.000000 0.000000 0.000000 0.000000 
0.380707 88.884415 2.922409 -0.009687 -1.135621 -9.530324 0.941615 0.137027 6.469540 -1.015397 0.265958 2.588420 0.592710 -0.607973 4.247065 -1.445317 0.331737 4.390512 0.036161 0.645851 3.712312 -0.113643 0.472845 -3.979604 -0.256749 -0.664227 -20.706547 0.000000 0.000000 0.000000 91.378311 -0.300797 8.780939 68.502365 -17.914694 -1.214112 -0.674475 18.728218 61.673038 -2.406134 11.025656 -0.229549 16.986591 31.058025 64.883186 -5.240748 -6.748047 -11.905023 -3.800036 -4.387282 -8.139614 0.000000 0.000000 0.000000 -10.102388 -7.316568 11.673144 1.115006 0.560133 0.384732 0.763424 0.115147 0.399556 0.000000 0.000000 0.000000 -9.393224 -1.893191 6.889256 -0.091558 0.528538 0.131248 0.586618 0.025930 0.108748 0.000000 0.000000 0.000000 -8.281966 5.956193 0.854032 0.105173 -1.056409 -0.280778 0.315350 -0.059526 -0.187128 0.000000 0.000000 0.000000 -8.760815 14.303175 -5.570850 0.257196 -2.077823 -0.806337 0.259041 -0.057000 -0.698471 0.000000 0.000000 0.000000 0.000000 0.000000 0.000000 0.000000 0.000000 0.000000 -88.214310 0.151810 3.747372 -74.420265 7.340368 -9.340319 -0.359521 -14.787287 72.011360 -6.769035 -20.025551 -3.294541 -16.483543 -31.258797 65.401733 4.621439 5.573761 -10.212245 3.316440 3.817473 -7.125722 0.000000 0.000000 0.000000 7.498075 -10.569471 16.020800 -0.847109 0.605736 -0.128394 -0.901187 0.124435 -0.215648 0.000000 0.000000 0.000000 7.569641 -4.982698 9.825484 -0.910242 0.544639 -0.108866 -1.087142 0.036492 -0.083364 0.000000 0.000000 0.000000 4.218636 3.665527 2.283330 -2.105906 -1.064008 0.266392 -2.361154 -0.056712 0.196491 0.000000 0.000000 0.000000 -0.970329 13.151713 -5.655301 -4.017770 -2.097800 1.204821 -3.684603 -0.014484 1.098647 0.000000 0.000000 0.000000 0.000000 0.000000 0.000000 0.000000 0.000000 0.000000 -1.108735 -8.784243 13.133689 -0.055080 -0.605356 5.412417 -2.194802 -7.289418 17.938910 -0.843188 0.800980 -18.765747 0.000000 0.000000 0.000000 0.000000 0.000000 0.000000 0.000000 0.000000 0.000000 -1.673799 -6.106363 8.542048 0.070557 0.344167 9.969376 3.825537 -0.967176 16.906296 0.312263 -0.452149 -20.822929 0.000000 0.000000 0.000000 0.000000 0.000000 0.000000 0.000000 0.000000 0.000000 
